{
  "accessors": [
    {
      "bufferView": 2,
      "componentType": 5126,
      "count": 8,
      "max": [
        -0.4324606955051422,
        1.0,
        -9.164280072582187e-07
      ],
      "min": [
        -2.4324610233306885,
        -1.0,
        -9.164280072582187e-07
      ],
      "type": "VEC3"
    },
    {
      "bufferView": 2,
      "byteOffset": 96,
      "componentType": 5126,
      "count": 8,
      "max": [
        0.0,
        0.0,
        1.0
      ],
      "min": [
        0.0,
        0.0,
        -1.0
      ],
      "type": "VEC3"
    },
    {
      "bufferView": 1,
      "componentType": 5126,
      "count": 8,
      "max": [
        1.0,
        1.0
      ],
      "min": [
        0.0,
        0.0
      ],
      "type": "VEC2"
    },
    {
      "bufferView": 0,
      "componentType": 5125,
      "count": 12,
      "type": "SCALAR"
    },
    {
      "bufferView": 2,
      "byteOffset": 192,
      "componentType": 5126,
      "count": 176,
      "max": [
        1.0,
        1.0,
        1.0
      ],
      "min": [
        -1.0,
        -1.0,
        -2.127305030822754
      ],
      "type": "VEC3"
    },
    {
      "bufferView": 2,
      "byteOffset": 2304,
      "componentType": 5126,
      "count": 176,
      "max": [
        1.0,
        1.0,
        1.0
      ],
      "min": [
        -1.0,
        -1.0,
        -1.0
      ],
      "type": "VEC3"
    },
    {
      "bufferView": 1,
      "byteOffset": 64,
      "componentType": 5126,
      "count": 176,
      "max": [
        0.5709872245788574,
        0.5852611064910889
      ],
      "min": [
        0.004794715903699398,
        0.004502892028540373
      ],
      "type": "VEC2"
    },
    {
      "bufferView": 0,
      "byteOffset": 48,
      "componentType": 5125,
      "count": 372,
      "type": "SCALAR"
    },
    {
      "bufferView": 2,
      "byteOffset": 4416,
      "componentType": 5126,
      "count": 13794,
      "max": [
        1.0310620069503784,
        1.026134967803955,
        1.4257630109786987
      ],
      "min": [
        -1.020885944366455,
        -1.026134967803955,
        -4.887668132781982
      ],
      "type": "VEC3"
    },
    {
      "bufferView": 2,
      "byteOffset": 169944,
      "componentType": 5126,
      "count": 13794,
      "max": [
        0.9999845027923584,
        1.0,
        1.0
      ],
      "min": [
        -0.9999845027923584,
        -1.0,
        -1.0
      ],
      "type": "VEC3"
    },
    {
      "bufferView": 1,
      "byteOffset": 1472,
      "componentType": 5126,
      "count": 13794,
      "max": [
        0.9954971075057983,
        0.9977412223815918
      ],
      "min": [
        0.011080440133810043,
        0.02829200029373169
      ],
      "type": "VEC2"
    },
    {
      "bufferView": 0,
      "byteOffset": 1536,
      "componentType": 5125,
      "count": 48000,
      "type": "SCALAR"
    },
    {
      "bufferView": 2,
      "byteOffset": 335472,
      "componentType": 5126,
      "count": 168,
      "max": [
        0.06016087159514427,
        0.06016087159514427,
        5.6786980628967285
      ],
      "min": [
        -0.06016087159514427,
        -0.06016087159514427,
        -1.9402559995651245
      ],
      "type": "VEC3"
    },
    {
      "bufferView": 2,
      "byteOffset": 337488,
      "componentType": 5126,
      "count": 168,
      "max": [
        0.7278809547424316,
        0.7278809547424316,
        1.0
      ],
      "min": [
        -0.7278809547424316,
        -0.7278809547424316,
        -0.6857143044471741
      ],
      "type": "VEC3"
    },
    {
      "bufferView": 1,
      "byteOffset": 111824,
      "componentType": 5126,
      "count": 168,
      "max": [
        0.59908527135849,
        0.48432299494743347
      ],
      "min": [
        0.11543919891119003,
        0.004502892028540373
      ],
      "type": "VEC2"
    },
    {
      "bufferView": 0,
      "byteOffset": 193536,
      "componentType": 5125,
      "count": 474,
      "type": "SCALAR"
    },
    {
      "bufferView": 2,
      "byteOffset": 339504,
      "componentType": 5126,
      "count": 72,
      "max": [
        0.007684051059186459,
        0.007727980148047209,
        5.829955101013184
      ],
      "min": [
        -0.007771908771246672,
        -0.007727980148047209,
        5.6786980628967285
      ],
      "type": "VEC3"
    },
    {
      "bufferView": 2,
      "byteOffset": 340368,
      "componentType": 5126,
      "count": 72,
      "max": [
        0.995791494846344,
        0.9953092932701111,
        0.7292622327804565
      ],
      "min": [
        -0.9955204129219055,
        -0.9959912300109863,
        -0.09702115505933762
      ],
      "type": "VEC3"
    },
    {
      "bufferView": 1,
      "byteOffset": 113168,
      "componentType": 5126,
      "count": 72,
      "max": [
        0.5820968151092529,
        0.5262472033500671
      ],
      "min": [
        0.005837618838995695,
        0.08507119864225388
      ],
      "type": "VEC2"
    },
    {
      "bufferView": 0,
      "byteOffset": 195432,
      "componentType": 5125,
      "count": 192,
      "type": "SCALAR"
    },
    {
      "bufferView": 2,
      "byteOffset": 341232,
      "componentType": 5126,
      "count": 284,
      "max": [
        0.034941788762807846,
        0.03454035148024559,
        7.292149066925049
      ],
      "min": [
        -0.033854540437459946,
        -0.0342559814453125,
        5.829955101013184
      ],
      "type": "VEC3"
    },
    {
      "bufferView": 2,
      "byteOffset": 344640,
      "componentType": 5126,
      "count": 284,
      "max": [
        0.9999943971633911,
        0.99992436170578,
        0.6991435289382935
      ],
      "min": [
        -0.999890923500061,
        -0.9999996423721313,
        -0.12458028644323349
      ],
      "type": "VEC3"
    },
    {
      "bufferView": 1,
      "byteOffset": 113744,
      "componentType": 5126,
      "count": 284,
      "max": [
        0.5831630229949951,
        0.5934268832206726
      ],
      "min": [
        0.004794715903699398,
        0.0178865697234869
      ],
      "type": "VEC2"
    },
    {
      "bufferView": 0,
      "byteOffset": 196200,
      "componentType": 5125,
      "count": 1242,
      "type": "SCALAR"
    },
    {
      "bufferView": 2,
      "byteOffset": 348048,
      "componentType": 5126,
      "count": 136,
      "max": [
        1.1087199449539185,
        1.1087199449539185,
        -4.721662998199463
      ],
      "min": [
        -1.1087199449539185,
        -1.1087199449539185,
        -5.1088128089904785
      ],
      "type": "VEC3"
    },
    {
      "bufferView": 2,
      "byteOffset": 349680,
      "componentType": 5126,
      "count": 136,
      "max": [
        1.0,
        1.0,
        1.0
      ],
      "min": [
        -1.0,
        -1.0,
        -1.0
      ],
      "type": "VEC3"
    },
    {
      "bufferView": 1,
      "byteOffset": 116016,
      "componentType": 5126,
      "count": 136,
      "max": [
        0.5464763045310974,
        0.5910599231719971
      ],
      "min": [
        0.004502892028540373,
        0.004502892028540373
      ],
      "type": "VEC2"
    },
    {
      "bufferView": 0,
      "byteOffset": 201168,
      "componentType": 5125,
      "count": 372,
      "type": "SCALAR"
    },
    {
      "bufferView": 2,
      "byteOffset": 351312,
      "componentType": 5126,
      "count": 136,
      "max": [
        0.9604820013046265,
        0.9604820013046265,
        -0.06217116117477417
      ],
      "min": [
        -0.9604820013046265,
        -0.9604820013046265,
        -1.3132129907608032
      ],
      "type": "VEC3"
    },
    {
      "bufferView": 2,
      "byteOffset": 352944,
      "componentType": 5126,
      "count": 136,
      "max": [
        1.0,
        1.0,
        1.0
      ],
      "min": [
        -1.0,
        -1.0,
        -1.0
      ],
      "type": "VEC3"
    },
    {
      "bufferView": 1,
      "byteOffset": 117104,
      "componentType": 5126,
      "count": 136,
      "max": [
        0.5583211183547974,
        0.5190466046333313
      ],
      "min": [
        0.018059900030493736,
        0.11794210225343704
      ],
      "type": "VEC2"
    },
    {
      "bufferView": 0,
      "byteOffset": 202656,
      "componentType": 5125,
      "count": 372,
      "type": "SCALAR"
    },
    {
      "bufferView": 2,
      "byteOffset": 354576,
      "componentType": 5126,
      "count": 136,
      "max": [
        0.9604820013046265,
        0.9604820013046265,
        -1.3155759572982788
      ],
      "min": [
        -0.9604820013046265,
        -0.9604820013046265,
        -2.566617965698242
      ],
      "type": "VEC3"
    },
    {
      "bufferView": 2,
      "byteOffset": 356208,
      "componentType": 5126,
      "count": 136,
      "max": [
        1.0,
        1.0,
        1.0
      ],
      "min": [
        -1.0,
        -1.0,
        -1.0
      ],
      "type": "VEC3"
    },
    {
      "bufferView": 1,
      "byteOffset": 118192,
      "componentType": 5126,
      "count": 136,
      "max": [
        0.5469682812690735,
        0.5102869272232056
      ],
      "min": [
        0.18928959965705872,
        0.029754100367426872
      ],
      "type": "VEC2"
    },
    {
      "bufferView": 0,
      "byteOffset": 204144,
      "componentType": 5125,
      "count": 372,
      "type": "SCALAR"
    },
    {
      "bufferView": 2,
      "byteOffset": 357840,
      "componentType": 5126,
      "count": 136,
      "max": [
        0.9604820013046265,
        0.9604820013046265,
        -2.56713604927063
      ],
      "min": [
        -0.9604820013046265,
        -0.9604820013046265,
        -3.8181779384613037
      ],
      "type": "VEC3"
    },
    {
      "bufferView": 2,
      "byteOffset": 359472,
      "componentType": 5126,
      "count": 136,
      "max": [
        1.0,
        1.0,
        1.0
      ],
      "min": [
        -1.0,
        -1.0,
        -1.0
      ],
      "type": "VEC3"
    },
    {
      "bufferView": 1,
      "byteOffset": 119280,
      "componentType": 5126,
      "count": 136,
      "max": [
        0.5583211183547974,
        0.5219622254371643
      ],
      "min": [
        0.018059900030493736,
        0.029754100367426872
      ],
      "type": "VEC2"
    },
    {
      "bufferView": 0,
      "byteOffset": 205632,
      "componentType": 5125,
      "count": 372,
      "type": "SCALAR"
    },
    {
      "bufferView": 2,
      "byteOffset": 361104,
      "componentType": 5126,
      "count": 136,
      "max": [
        0.9604820013046265,
        0.9604820013046265,
        -3.817193031311035
      ],
      "min": [
        -0.9604820013046265,
        -0.9604820013046265,
        -5.068234920501709
      ],
      "type": "VEC3"
    },
    {
      "bufferView": 2,
      "byteOffset": 362736,
      "componentType": 5126,
      "count": 136,
      "max": [
        1.0,
        1.0,
        1.0
      ],
      "min": [
        -1.0,
        -1.0,
        -1.0
      ],
      "type": "VEC3"
    },
    {
      "bufferView": 1,
      "byteOffset": 120368,
      "componentType": 5126,
      "count": 136,
      "max": [
        0.44064271450042725,
        0.5637847185134888
      ],
      "min": [
        0.12259750068187714,
        0.004502892028540373
      ],
      "type": "VEC2"
    },
    {
      "bufferView": 0,
      "byteOffset": 207120,
      "componentType": 5125,
      "count": 372,
      "type": "SCALAR"
    }
  ],
  "asset": {
    "extras": {
      "author": "Rispat Momit (https://sketchfab.com/rispatmomit)",
      "license": "CC-BY-4.0 (http://creativecommons.org/licenses/by/4.0/)",
      "source": "https://sketchfab.com/3d-models/happy-birthday-cake-284fecf4cc504ea5901d824a79676c94",
      "title": "Happy Birthday Cake"
    },
    "generator": "Sketchfab-12.65.0",
    "version": "2.0"
  },
  "bufferViews": [
    {
      "buffer": 0,
      "byteLength": 208608,
      "name": "floatBufferViews",
      "target": 34963
    },
    {
      "buffer": 0,
      "byteLength": 121456,
      "byteOffset": 208608,
      "byteStride": 8,
      "name": "floatBufferViews",
      "target": 34962
    },
    {
      "buffer": 0,
      "byteLength": 364368,
      "byteOffset": 330064,
      "byteStride": 12,
      "name": "floatBufferViews",
      "target": 34962
    }
  ],
  "buffers": [
    {
      "byteLength": 694432,
      "uri": "scene.bin"
    }
  ],
  "images": [
    {
      "uri": "textures/BR_D_metallicRoughness.png"
    },
    {
      "uri": "textures/Plane_baseColor.png"
    }
  ],
  "materials": [
    {
      "doubleSided": true,
      "name": "BR_D",
      "occlusionTexture": {
        "index": 0,
        "strength": 0.0
      },
      "pbrMetallicRoughness": {
        "baseColorFactor": [
          0.098968,
          0.04533,
          0.0142928,
          1.0
        ],
        "metallicFactor": 0.0,
        "metallicRoughnessTexture": {
          "index": 0
        },
        "roughnessFactor": 0.6
      }
    },
    {
      "doubleSided": true,
      "emissiveFactor": [
        0.2,
        0.2,
        0.2
      ],
      "name": "White",
      "occlusionTexture": {
        "index": 0
      },
      "pbrMetallicRoughness": {
        "baseColorFactor": [
          0.8,
          0.8,
          0.8,
          1.0
        ],
        "metallicFactor": 0.0,
        "metallicRoughnessTexture": {
          "index": 0
        },
        "roughnessFactor": 0.6
      }
    },
    {
      "doubleSided": true,
      "name": "material",
      "occlusionTexture": {
        "index": 0
      },
      "pbrMetallicRoughness": {
        "baseColorFactor": [
          0.8,
          0.8,
          0.8,
          1.0
        ],
        "metallicFactor": 0.0,
        "metallicRoughnessTexture": {
          "index": 0
        },
        "roughnessFactor": 0.6
      }
    },
    {
      "doubleSided": true,
      "name": "B_001",
      "occlusionTexture": {
        "index": 0
      },
      "pbrMetallicRoughness": {
        "baseColorFactor": [
          0.0375692,
          0.0375692,
          0.0375692,
          1.0
        ],
        "metallicFactor": 0.0,
        "metallicRoughnessTexture": {
          "index": 0
        },
        "roughnessFactor": 0.6
      }
    },
    {
      "doubleSided": true,
      "emissiveFactor": [
        1.0,
        1.0,
        0.0
      ],
      "name": "Flame",
      "pbrMetallicRoughness": {
        "baseColorFactor": [
          0.64,
          0.263833,
          0.0,
          1.0
        ],
        "metallicFactor": 0.0,
        "roughnessFactor": 0.6
      }
    },
    {
      "doubleSided": true,
      "name": "Gold",
      "occlusionTexture": {
        "index": 0
      },
      "pbrMetallicRoughness": {
        "baseColorFactor": [
          0.8,
          0.470729,
          0.0,
          1.0
        ],
        "metallicFactor": 0.0,
        "metallicRoughnessTexture": {
          "index": 0
        },
        "roughnessFactor": 0.6
      }
    },
    {
      "doubleSided": true,
      "name": "Brown",
      "occlusionTexture": {
        "index": 0
      },
      "pbrMetallicRoughness": {
        "baseColorFactor": [
          0.300599,
          0.111638,
          0.0294012,
          1.0
        ],
        "metallicFactor": 0.0,
        "metallicRoughnessTexture": {
          "index": 0
        },
        "roughnessFactor": 0.6
      }
    },
    {
      "doubleSided": true,
      "name": "material_7",
      "occlusionTexture": {
        "index": 0
      },
      "pbrMetallicRoughness": {
        "baseColorFactor": [
          0.64,
          0.0584172,
          0.198424,
          1.0
        ],
        "metallicFactor": 0.0,
        "metallicRoughnessTexture": {
          "index": 0
        },
        "roughnessFactor": 0.6
      }
    },
    {
      "doubleSided": true,
      "name": "material_8",
      "occlusionTexture": {
        "index": 0
      },
      "pbrMetallicRoughness": {
        "baseColorFactor": [
          0.248395,
          0.566183,
          0.64,
          1.0
        ],
        "metallicFactor": 0.0,
        "metallicRoughnessTexture": {
          "index": 0
        },
        "roughnessFactor": 0.6
      }
    },
    {
      "doubleSided": true,
      "name": "Material_001",
      "occlusionTexture": {
        "index": 0,
        "strength": 0.0
      },
      "pbrMetallicRoughness": {
        "baseColorFactor": [
          0.0,
          0.0912897,
          0.64,
          1.0
        ],
        "metallicFactor": 0.0,
        "metallicRoughnessTexture": {
          "index": 0
        },
        "roughnessFactor": 0.6
      }
    },
    {
      "alphaMode": "BLEND",
      "doubleSided": true,
      "emissiveFactor": [
        1.0,
        1.0,
        1.0
      ],
      "name": "Plane",
      "pbrMetallicRoughness": {
        "baseColorTexture": {
          "index": 1
        },
        "metallicFactor": 0.0,
        "roughnessFactor": 0.6
      }
    }
  ],
  "meshes": [
    {
      "name": "Object_0",
      "primitives": [
        {
          "attributes": {
            "NORMAL": 1,
            "POSITION": 0,
            "TEXCOORD_0": 2
          },
          "indices": 3,
          "material": 10,
          "mode": 4
        }
      ]
    },
    {
      "name": "BR_D-material",
      "primitives": [
        {
          "attributes": {
            "NORMAL": 5,
            "POSITION": 4,
            "TEXCOORD_0": 6
          },
          "indices": 7,
          "material": 0,
          "mode": 4
        }
      ]
    },
    {
      "name": "White-material",
      "primitives": [
        {
          "attributes": {
            "NORMAL": 9,
            "POSITION": 8,
            "TEXCOORD_0": 10
          },
          "indices": 11,
          "material": 1,
          "mode": 4
        }
      ]
    },
    {
      "name": "W-material",
      "primitives": [
        {
          "attributes": {
            "NORMAL": 13,
            "POSITION": 12,
            "TEXCOORD_0": 14
          },
          "indices": 15,
          "material": 2,
          "mode": 4
        }
      ]
    },
    {
      "name": "B_001-material",
      "primitives": [
        {
          "attributes": {
            "NORMAL": 17,
            "POSITION": 16,
            "TEXCOORD_0": 18
          },
          "indices": 19,
          "material": 3,
          "mode": 4
        }
      ]
    },
    {
      "name": "Flame-material",
      "primitives": [
        {
          "attributes": {
            "NORMAL": 21,
            "POSITION": 20,
            "TEXCOORD_0": 22
          },
          "indices": 23,
          "material": 4,
          "mode": 4
        }
      ]
    },
    {
      "name": "Gold-material",
      "primitives": [
        {
          "attributes": {
            "NORMAL": 25,
            "POSITION": 24,
            "TEXCOORD_0": 26
          },
          "indices": 27,
          "material": 5,
          "mode": 4
        }
      ]
    },
    {
      "name": "Brown-material",
      "primitives": [
        {
          "attributes": {
            "NORMAL": 29,
            "POSITION": 28,
            "TEXCOORD_0": 30
          },
          "indices": 31,
          "material": 6,
          "mode": 4
        }
      ]
    },
    {
      "name": "R-material",
      "primitives": [
        {
          "attributes": {
            "NORMAL": 33,
            "POSITION": 32,
            "TEXCOORD_0": 34
          },
          "indices": 35,
          "material": 7,
          "mode": 4
        }
      ]
    },
    {
      "name": "B-material",
      "primitives": [
        {
          "attributes": {
            "NORMAL": 37,
            "POSITION": 36,
            "TEXCOORD_0": 38
          },
          "indices": 39,
          "material": 8,
          "mode": 4
        }
      ]
    },
    {
      "name": "Material_001-material",
      "primitives": [
        {
          "attributes": {
            "NORMAL": 41,
            "POSITION": 40,
            "TEXCOORD_0": 42
          },
          "indices": 43,
          "material": 9,
          "mode": 4
        }
      ]
    }
  ],
  "nodes": [
    {
      "children": [
        1
      ],
      "matrix": [
        1.0,
        0.0,
        0.0,
        0.0,
        0.0,
        2.220446049250313e-16,
        -1.0,
        0.0,
        0.0,
        1.0,
        2.220446049250313e-16,
        0.0,
        0.0,
        0.0,
        0.0,
        1.0
      ],
      "name": "Sketchfab_model"
    },
    {
      "children": [
        2,
        4
      ],
      "name": "Collada visual scene group"
    },
    {
      "children": [
        3
      ],
      "matrix": [
        -6.39758e-07,
        0.0,
        -1.0,
        0.0,
        0.0,
        1.61761,
        0.0,
        0.0,
        1.0,
        0.0,
        -6.39758e-07,
        0.0,
        0.0,
        0.0,
        1.050478,
        1.0
      ],
      "name": "Plane"
    },
    {
      "mesh": 0,
      "name": "Object_3"
    },
    {
      "children": [
        5,
        6,
        7,
        8,
        9,
        10,
        11,
        12,
        13,
        14
      ],
      "matrix": [
        1.041144,
        0.0,
        0.0,
        0.0,
        0.0,
        1.041144,
        0.0,
        0.0,
        0.0,
        0.0,
        0.1416474,
        0.0,
        0.0,
        0.0,
        0.7007405,
        1.0
      ],
      "name": "Cylinder_003"
    },
    {
      "mesh": 1,
      "name": "BR_D-material"
    },
    {
      "mesh": 2,
      "name": "White-material"
    },
    {
      "mesh": 3,
      "name": "W-material"
    },
    {
      "mesh": 4,
      "name": "B_001-material"
    },
    {
      "mesh": 5,
      "name": "Flame-material"
    },
    {
      "mesh": 6,
      "name": "Gold-material"
    },
    {
      "mesh": 7,
      "name": "Brown-material"
    },
    {
      "mesh": 8,
      "name": "R-material"
    },
    {
      "mesh": 9,
      "name": "B-material"
    },
    {
      "mesh": 10,
      "name": "Material_001-material"
    }
  ],
  "samplers": [
    {
      "magFilter": 9729,
      "minFilter": 9987,
      "wrapS": 10497,
      "wrapT": 10497
    }
  ],
  "scene": 0,
  "scenes": [
    {
      "name": "Sketchfab_Scene",
      "nodes": [
        0
      ]
    }
  ],
  "textures": [
    {
      "sampler": 0,
      "source": 0
    },
    {
      "sampler": 0,
      "source": 1
    }
  ]
}
